<svg xmlns="http://www.w3.org/2000/svg" width="111" height="36" fill="none" viewBox="0 0 111 36">
    <path fill="#fff" d="M31.009 0v35.58h8.653V23.135h8.048v-8.118h-8.048V8.73h8.655V0H31.01zM28.285 0h-8.657v35.578h8.657V0zM0 0v35.58h17.312v-8.123H8.654V.001H0zM81.305 7.247l1.522 15.058h-3.085l1.563-15.058zM97.691 0l-2.473 8.12h5.699L90.832 29.73l.788-16.709h-5.992L89.55.001H74.167L71.05 35.579h8.308l.475-6.985h2.856l.477 6.985H111v-8.121h-9.478L111 5.85V0H97.691zM51.098 0v35.58h17.313v-8.123h-8.654v-6.504h8.046v-7.507h-8.046V8.12h8.654V0H51.098z"/>
</svg>
